#N canvas 238 63 1299 707 10;
#X declare -lib mrpeach;
#X obj 15 16 import mrpeach;
#X obj 15 52 udpreceive 9001;
#X obj 17 85 unpackOSC;
#X obj 16 167 cycle~ 220;
#X obj 442 573 dac~;
#X obj 17 128 route /user1/frequency /user1/control;
#X obj 126 153 select 1 0;
#X obj 17 200 *~;
#X text 226 22 Click to start;
#X text 221 80 Click to stop;
#X obj 123 208 line~;
#X msg 172 181 0 200;
#X msg 132 23 \; pd dsp 1 \;;
#X msg 132 60 \; pd dsp 0 \;;
#X obj 258 167 cycle~ 220;
#X obj 368 153 select 1 0;
#X obj 259 200 *~;
#X obj 365 208 line~;
#X msg 414 181 0 200;
#X obj 259 128 route /user2/frequency /user2/control;
#X obj 441 467 *~ 0.5;
#X msg 125 182 0.7 200;
#X msg 367 182 0.7 200;
#X obj 514 165 cycle~ 220;
#X obj 624 151 select 1 0;
#X obj 515 198 *~;
#X obj 621 206 line~;
#X msg 670 179 0 200;
#X msg 623 180 0.7 200;
#X obj 515 126 route /user3/frequency /user3/control;
#X obj 783 165 cycle~ 220;
#X obj 893 151 select 1 0;
#X obj 784 198 *~;
#X obj 890 206 line~;
#X msg 939 179 0 200;
#X msg 892 180 0.7 200;
#X obj 784 126 route /user4/frequency /user4/control;
#X obj 132 -2 loadbang;
#X obj 638 340 cycle~ 220;
#X obj 748 326 select 1 0;
#X obj 639 373 *~;
#X obj 745 381 line~;
#X msg 794 354 0 200;
#X obj 880 340 cycle~ 220;
#X obj 990 326 select 1 0;
#X obj 881 373 *~;
#X obj 987 381 line~;
#X msg 1036 354 0 200;
#X msg 747 355 0.7 200;
#X msg 989 355 0.7 200;
#X obj 1136 338 cycle~ 220;
#X obj 1246 324 select 1 0;
#X obj 1137 371 *~;
#X obj 1243 379 line~;
#X msg 1292 352 0 200;
#X msg 1245 353 0.7 200;
#X obj 1405 338 cycle~ 220;
#X obj 1515 324 select 1 0;
#X obj 1406 371 *~;
#X obj 1512 379 line~;
#X msg 1561 352 0 200;
#X msg 1514 353 0.7 200;
#X obj 639 301 route /user5/frequency /user5/control;
#X obj 881 301 route /user6/frequency /user6/control;
#X obj 1137 299 route /user7/frequency /user7/control;
#X obj 1406 299 route /user8/frequency /user8/control;
#X obj 444 503 *~ 0.2;
#X connect 1 0 2 0;
#X connect 2 0 5 0;
#X connect 2 0 19 0;
#X connect 2 0 62 0;
#X connect 2 0 63 0;
#X connect 3 0 7 0;
#X connect 5 0 3 0;
#X connect 5 1 6 0;
#X connect 6 0 21 0;
#X connect 6 1 11 0;
#X connect 7 0 20 0;
#X connect 10 0 7 1;
#X connect 11 0 10 0;
#X connect 14 0 16 0;
#X connect 15 0 22 0;
#X connect 15 1 18 0;
#X connect 16 0 20 0;
#X connect 17 0 16 1;
#X connect 18 0 17 0;
#X connect 19 0 14 0;
#X connect 19 1 15 0;
#X connect 20 0 66 0;
#X connect 21 0 10 0;
#X connect 22 0 17 0;
#X connect 23 0 25 0;
#X connect 24 0 28 0;
#X connect 24 1 27 0;
#X connect 25 0 20 0;
#X connect 26 0 25 1;
#X connect 27 0 26 0;
#X connect 28 0 26 0;
#X connect 29 0 23 0;
#X connect 29 1 24 0;
#X connect 30 0 32 0;
#X connect 31 0 35 0;
#X connect 31 1 34 0;
#X connect 32 0 20 0;
#X connect 33 0 32 1;
#X connect 34 0 33 0;
#X connect 35 0 33 0;
#X connect 36 0 30 0;
#X connect 36 1 31 0;
#X connect 37 0 12 0;
#X connect 38 0 40 0;
#X connect 39 0 48 0;
#X connect 39 1 42 0;
#X connect 40 0 20 0;
#X connect 41 0 40 1;
#X connect 42 0 41 0;
#X connect 43 0 45 0;
#X connect 44 0 49 0;
#X connect 44 1 47 0;
#X connect 45 0 20 0;
#X connect 46 0 45 1;
#X connect 47 0 46 0;
#X connect 48 0 41 0;
#X connect 49 0 46 0;
#X connect 50 0 52 0;
#X connect 51 0 55 0;
#X connect 51 1 54 0;
#X connect 52 0 20 0;
#X connect 53 0 52 1;
#X connect 54 0 53 0;
#X connect 55 0 53 0;
#X connect 56 0 58 0;
#X connect 57 0 61 0;
#X connect 57 1 60 0;
#X connect 58 0 20 0;
#X connect 59 0 58 1;
#X connect 60 0 59 0;
#X connect 61 0 59 0;
#X connect 62 0 38 0;
#X connect 62 1 39 0;
#X connect 63 0 43 0;
#X connect 63 1 44 0;
#X connect 64 0 50 0;
#X connect 64 1 51 0;
#X connect 65 0 56 0;
#X connect 65 1 57 0;
#X connect 66 0 4 0;
