#N canvas 680 290 689 501 10;
#X declare -lib mrpeach;
#X obj 15 16 import mrpeach;
#X obj 15 52 udpreceive 9001;
#X obj 17 85 unpackOSC;
#X obj 16 167 cycle~ 220;
#X obj 147 425 dac~;
#X obj 17 128 route /user1/frequency /user1/control;
#X obj 126 153 select 1 0;
#X obj 17 200 *~;
#X text 226 22 Click to start;
#X text 221 80 Click to stop;
#X obj 123 208 line~;
#X msg 172 181 0 200;
#X msg 125 182 0.9 200;
#X msg 132 7 \; pd dsp 1 \;;
#X msg 132 60 \; pd dsp 0 \;;
#X obj 258 167 cycle~ 220;
#X obj 368 153 select 1 0;
#X obj 259 200 *~;
#X obj 365 208 line~;
#X msg 414 181 0 200;
#X msg 367 182 0.9 200;
#X obj 146 395 *~ 0.9;
#X obj 259 128 route /user2/frequency /user2/control;
#X connect 1 0 2 0;
#X connect 2 0 5 0;
#X connect 2 0 22 0;
#X connect 3 0 7 0;
#X connect 5 0 3 0;
#X connect 5 1 6 0;
#X connect 6 0 12 0;
#X connect 6 1 11 0;
#X connect 7 0 21 0;
#X connect 10 0 7 1;
#X connect 11 0 10 0;
#X connect 12 0 10 0;
#X connect 15 0 17 0;
#X connect 16 0 20 0;
#X connect 16 1 19 0;
#X connect 17 0 21 0;
#X connect 18 0 17 1;
#X connect 19 0 18 0;
#X connect 20 0 18 0;
#X connect 21 0 4 0;
#X connect 21 0 4 1;
#X connect 22 0 15 0;
#X connect 22 1 16 0;
