{
	"patcher" : 	{
		"fileversion" : 1,
		"appversion" : 		{
			"major" : 6,
			"minor" : 0,
			"revision" : 4
		}
,
		"rect" : [ 587.0, 56.0, 812.0, 641.0 ],
		"bgcolor" : [ 1.0, 1.0, 1.0, 0.0 ],
		"bglocked" : 0,
		"openinpresentation" : 1,
		"default_fontsize" : 12.0,
		"default_fontface" : 0,
		"default_fontname" : "Arial",
		"gridonopen" : 0,
		"gridsize" : [ 15.0, 15.0 ],
		"gridsnaponopen" : 0,
		"statusbarvisible" : 2,
		"toolbarvisible" : 1,
		"boxanimatetime" : 200,
		"imprint" : 0,
		"enablehscroll" : 1,
		"enablevscroll" : 1,
		"devicewidth" : 0.0,
		"description" : "",
		"digest" : "",
		"tags" : "",
		"boxes" : [ 			{
				"box" : 				{
					"fontname" : "Arial Bold",
					"fontsize" : 10.0,
					"id" : "obj-20",
					"maxclass" : "comment",
					"numinlets" : 1,
					"numoutlets" : 0,
					"patching_rect" : [ 63.5, 312.5, 150.0, 18.0 ],
					"presentation" : 1,
					"presentation_rect" : [ 39.0, 62.0, 63.0, 18.0 ],
					"text" : "frequency"
				}

			}
, 			{
				"box" : 				{
					"activebgcolor" : [ 1.0, 0.0, 0.0, 1.0 ],
					"activebgoncolor" : [ 0.286275, 0.94902, 0.0, 1.0 ],
					"id" : "obj-4",
					"maxclass" : "live.toggle",
					"numinlets" : 1,
					"numoutlets" : 1,
					"outlettype" : [ "" ],
					"parameter_enable" : 1,
					"patching_rect" : [ 304.0, 363.5, 15.0, 15.0 ],
					"presentation" : 1,
					"presentation_rect" : [ 12.0, 62.0, 15.0, 15.0 ],
					"saved_attribute_attributes" : 					{
						"valueof" : 						{
							"parameter_shortname" : "live.toggle",
							"parameter_longname" : "live.toggle[7]",
							"parameter_enum" : [ "off", "on" ],
							"parameter_mmax" : 1.0,
							"parameter_initial" : [ 1.0 ],
							"parameter_type" : 2,
							"parameter_initial_enable" : 1
						}

					}
,
					"varname" : "live.toggle"
				}

			}
, 			{
				"box" : 				{
					"bordercolor" : [ 0.501961, 0.501961, 0.501961, 0.0 ],
					"cantchange" : 1,
					"fontname" : "Arial Bold",
					"fontsize" : 10.0,
					"id" : "obj-2",
					"maxclass" : "flonum",
					"numinlets" : 1,
					"numoutlets" : 2,
					"outlettype" : [ "float", "bang" ],
					"parameter_enable" : 0,
					"patching_rect" : [ 49.5, 312.5, 47.0, 18.0 ],
					"presentation" : 1,
					"presentation_rect" : [ 94.0, 62.0, 47.0, 18.0 ],
					"triangle" : 0
				}

			}
, 			{
				"box" : 				{
					"fontname" : "Arial",
					"fontsize" : 12.0,
					"id" : "obj-42",
					"linecount" : 2,
					"maxclass" : "message",
					"numinlets" : 2,
					"numoutlets" : 1,
					"outlettype" : [ "" ],
					"patching_rect" : [ 16.0, 332.5, 117.0, 33.0 ],
					"text" : "/user #1 /frequency\n $1"
				}

			}
, 			{
				"box" : 				{
					"fontname" : "Arial",
					"fontsize" : 12.0,
					"id" : "obj-43",
					"maxclass" : "newobj",
					"numinlets" : 4,
					"numoutlets" : 1,
					"outlettype" : [ "" ],
					"patching_rect" : [ 16.0, 379.5, 121.0, 20.0 ],
					"text" : "sprintf %s%i%s %.2f"
				}

			}
, 			{
				"box" : 				{
					"fontname" : "Arial",
					"fontsize" : 12.0,
					"id" : "obj-37",
					"maxclass" : "message",
					"numinlets" : 2,
					"numoutlets" : 1,
					"outlettype" : [ "" ],
					"patching_rect" : [ 184.0, 363.5, 113.0, 18.0 ],
					"text" : "/user #1 /control $1"
				}

			}
, 			{
				"box" : 				{
					"fontname" : "Arial",
					"fontsize" : 12.0,
					"id" : "obj-31",
					"maxclass" : "newobj",
					"numinlets" : 4,
					"numoutlets" : 1,
					"outlettype" : [ "" ],
					"patching_rect" : [ 184.0, 391.5, 110.0, 20.0 ],
					"text" : "sprintf %s%i%s %i"
				}

			}
, 			{
				"box" : 				{
					"fontname" : "Arial",
					"fontsize" : 12.0,
					"id" : "obj-136",
					"maxclass" : "newobj",
					"numinlets" : 1,
					"numoutlets" : 1,
					"outlettype" : [ "" ],
					"patching_rect" : [ 184.0, 332.5, 135.0, 20.0 ],
					"text" : "if $i1 == 1 then 1 else 0"
				}

			}
, 			{
				"box" : 				{
					"fontname" : "Arial",
					"fontsize" : 12.0,
					"id" : "obj-135",
					"maxclass" : "newobj",
					"numinlets" : 1,
					"numoutlets" : 3,
					"outlettype" : [ "", "int", "int" ],
					"patching_rect" : [ 184.0, 303.5, 50.0, 20.0 ],
					"text" : "change"
				}

			}
, 			{
				"box" : 				{
					"fontname" : "Arial",
					"fontsize" : 12.0,
					"id" : "obj-74",
					"maxclass" : "newobj",
					"numinlets" : 2,
					"numoutlets" : 1,
					"outlettype" : [ "" ],
					"patching_rect" : [ 184.0, 275.5, 139.0, 20.0 ],
					"text" : "if $f1 > $f2 then 1 else 0"
				}

			}
, 			{
				"box" : 				{
					"fontname" : "Arial",
					"fontsize" : 12.0,
					"id" : "obj-19",
					"maxclass" : "newobj",
					"numinlets" : 1,
					"numoutlets" : 0,
					"patching_rect" : [ 16.0, 430.0, 103.0, 20.0 ],
					"text" : "udpsend #2 9001"
				}

			}
, 			{
				"box" : 				{
					"fontname" : "Arial",
					"fontsize" : 12.0,
					"id" : "obj-117",
					"maxclass" : "newobj",
					"numinlets" : 6,
					"numoutlets" : 1,
					"outlettype" : [ "" ],
					"patching_rect" : [ 16.0, 275.5, 112.0, 20.0 ],
					"text" : "scale 1. 0. 60. 880."
				}

			}
, 			{
				"box" : 				{
					"args" : [ "y", "r_hand" ],
					"id" : "obj-16",
					"maxclass" : "bpatcher",
					"name" : "point_selector.maxpat",
					"numinlets" : 1,
					"numoutlets" : 2,
					"outlettype" : [ "", "" ],
					"patching_rect" : [ 352.0, 107.5, 155.0, 144.0 ]
				}

			}
, 			{
				"box" : 				{
					"args" : [ "y", "r_elbow" ],
					"id" : "obj-15",
					"maxclass" : "bpatcher",
					"name" : "point_selector.maxpat",
					"numinlets" : 1,
					"numoutlets" : 2,
					"outlettype" : [ "", "" ],
					"patching_rect" : [ 184.0, 107.5, 155.0, 144.0 ]
				}

			}
, 			{
				"box" : 				{
					"args" : [ "y", "l_hand" ],
					"id" : "obj-14",
					"maxclass" : "bpatcher",
					"name" : "point_selector.maxpat",
					"numinlets" : 1,
					"numoutlets" : 2,
					"outlettype" : [ "", "" ],
					"patching_rect" : [ 16.0, 107.5, 155.0, 144.0 ]
				}

			}
, 			{
				"box" : 				{
					"args" : [ "#1" ],
					"enablehscroll" : 1,
					"id" : "obj-3",
					"maxclass" : "bpatcher",
					"name" : "receive_user.maxpat",
					"numinlets" : 1,
					"numoutlets" : 4,
					"outlettype" : [ "", "", "", "" ],
					"patching_rect" : [ 16.0, 9.0, 132.0, 83.0 ],
					"presentation" : 1,
					"presentation_rect" : [ -14.5, -3.0, 132.0, 83.0 ]
				}

			}
 ],
		"lines" : [ 			{
				"patchline" : 				{
					"destination" : [ "obj-2", 0 ],
					"disabled" : 0,
					"hidden" : 0,
					"source" : [ "obj-117", 0 ]
				}

			}
, 			{
				"patchline" : 				{
					"destination" : [ "obj-42", 0 ],
					"disabled" : 0,
					"hidden" : 0,
					"source" : [ "obj-117", 0 ]
				}

			}
, 			{
				"patchline" : 				{
					"destination" : [ "obj-136", 0 ],
					"disabled" : 0,
					"hidden" : 0,
					"source" : [ "obj-135", 0 ]
				}

			}
, 			{
				"patchline" : 				{
					"destination" : [ "obj-37", 0 ],
					"disabled" : 0,
					"hidden" : 0,
					"source" : [ "obj-136", 0 ]
				}

			}
, 			{
				"patchline" : 				{
					"destination" : [ "obj-4", 0 ],
					"disabled" : 0,
					"hidden" : 0,
					"source" : [ "obj-136", 0 ]
				}

			}
, 			{
				"patchline" : 				{
					"destination" : [ "obj-117", 0 ],
					"disabled" : 0,
					"hidden" : 0,
					"source" : [ "obj-14", 1 ]
				}

			}
, 			{
				"patchline" : 				{
					"destination" : [ "obj-74", 0 ],
					"disabled" : 0,
					"hidden" : 0,
					"source" : [ "obj-15", 1 ]
				}

			}
, 			{
				"patchline" : 				{
					"destination" : [ "obj-74", 1 ],
					"disabled" : 0,
					"hidden" : 0,
					"source" : [ "obj-16", 1 ]
				}

			}
, 			{
				"patchline" : 				{
					"destination" : [ "obj-14", 0 ],
					"disabled" : 0,
					"hidden" : 0,
					"source" : [ "obj-3", 0 ]
				}

			}
, 			{
				"patchline" : 				{
					"destination" : [ "obj-15", 0 ],
					"disabled" : 0,
					"hidden" : 0,
					"source" : [ "obj-3", 0 ]
				}

			}
, 			{
				"patchline" : 				{
					"destination" : [ "obj-16", 0 ],
					"disabled" : 0,
					"hidden" : 0,
					"source" : [ "obj-3", 0 ]
				}

			}
, 			{
				"patchline" : 				{
					"destination" : [ "obj-19", 0 ],
					"disabled" : 0,
					"hidden" : 0,
					"source" : [ "obj-31", 0 ]
				}

			}
, 			{
				"patchline" : 				{
					"destination" : [ "obj-31", 0 ],
					"disabled" : 0,
					"hidden" : 0,
					"source" : [ "obj-37", 0 ]
				}

			}
, 			{
				"patchline" : 				{
					"destination" : [ "obj-43", 0 ],
					"disabled" : 0,
					"hidden" : 0,
					"source" : [ "obj-42", 0 ]
				}

			}
, 			{
				"patchline" : 				{
					"destination" : [ "obj-19", 0 ],
					"disabled" : 0,
					"hidden" : 0,
					"source" : [ "obj-43", 0 ]
				}

			}
, 			{
				"patchline" : 				{
					"destination" : [ "obj-135", 0 ],
					"disabled" : 0,
					"hidden" : 0,
					"source" : [ "obj-74", 0 ]
				}

			}
 ],
		"parameters" : 		{
			"obj-3::obj-14" : [ "live.toggle[6]", "live.toggle", 0 ],
			"obj-16::obj-14" : [ "live.toggle[13]", "live.toggle", 0 ],
			"obj-14::obj-14" : [ "live.toggle[3]", "live.toggle", 0 ],
			"obj-16::obj-15" : [ "live.toggle[12]", "live.toggle", 0 ],
			"obj-14::obj-15" : [ "live.toggle[4]", "live.toggle", 0 ],
			"obj-3::obj-15" : [ "live.toggle[5]", "live.toggle", 0 ],
			"obj-4" : [ "live.toggle[7]", "live.toggle", 0 ],
			"obj-15::obj-14" : [ "live.toggle[1]", "live.toggle", 0 ],
			"obj-15::obj-15" : [ "live.toggle[2]", "live.toggle", 0 ]
		}
,
		"dependency_cache" : [ 			{
				"name" : "receive_user.maxpat",
				"bootpath" : "/Users/TheAlphaNerd/github/thesis-code/max_patch/OSCeleton_router",
				"patcherrelativepath" : "../OSCeleton_router",
				"type" : "JSON",
				"implicit" : 1
			}
, 			{
				"name" : "r_alt.maxpat",
				"bootpath" : "/Users/TheAlphaNerd/github/thesis-code/max_patch/OSCeleton_router",
				"patcherrelativepath" : "../OSCeleton_router",
				"type" : "JSON",
				"implicit" : 1
			}
, 			{
				"name" : "point_selector.maxpat",
				"bootpath" : "/Users/TheAlphaNerd/github/thesis-code/max_patch/OSCeleton_router",
				"patcherrelativepath" : "../OSCeleton_router",
				"type" : "JSON",
				"implicit" : 1
			}
 ]
	}

}
